# xmcd
#
# Track frame offsets: 
#        150
#        12072
#        25215
#        36207
#        46640
#        58515
#        71562
#        83390
#        93752
#        105135
#        116657
#        130015
#        139195
#        148100
#        161115
#        175852
#        187305
#        198315
#        214235
#        229307
#        239952
#
# Disc length: 3331 seconds
#
# Revision: 4
# Processed by: cddbd v1.5.2PL0 Copyright (c) Steve Scherf et al.
# Submitted via: ExactAudioCopy v1.3
#
DISCID=220d0115
DTITLE=Frankie Laine - On The Trail
DYEAR=1990
DGENRE=Country
TTITLE0=High Noon (1952)
TTITLE1=Cool Water (1955)
TTITLE2=The 3 10 To Yuma (1957)
TTITLE3=Gunfight At O.K. Corral (1957)
TTITLE4=Wanted Man (1961)
TTITLE5=Bowie Knife (1961)
TTITLE6=Mule Train (1961)
TTITLE7=The Hanging Tree (1960)
TTITLE8=Along The Navajo Trail (1960)
TTITLE9=City Boy (1961)
TTITLE10=Cry Of The Wild Goose (1961)
TTITLE11=Rawhide (1961)
TTITLE12=Gunslinger (1961)
TTITLE13=The Green Leaves Of Summer (1961)
TTITLE14=On The Trail (1962)
TTITLE15=North To Alaska (1962)
TTITLE16=Call Of The Wild (1962)
TTITLE17=Tumbling Tumbleweeds (1962)
TTITLE18=Ghost Riders In The Sky (1962)
TTITLE19=Prairie Belle (1963)
TTITLE20=Lonely Man (1957)
EXTD=Track dates supplied.\nSpellings of two titles corrected.
EXTT0=
EXTT1=
EXTT2=
EXTT3=
EXTT4=
EXTT5=
EXTT6=
EXTT7=
EXTT8=
EXTT9=
EXTT10=
EXTT11=
EXTT12=
EXTT13=
EXTT14=
EXTT15=
EXTT16=
EXTT17=
EXTT18=
EXTT19=
EXTT20=
PLAYORDER=
